<svg xmlns="http://www.w3.org/2000/svg" width="401.998" height="401.998" viewBox="0 0 401.998 401.998">
  <path d="M357.45 190.72c-5.33-5.33-11.8-7.992-19.417-7.992h-9.13v-54.82c0-35.023-12.56-65.094-37.686-90.22C266.093 12.564 236.025 0 200.997 0c-35.025 0-65.1 12.563-90.22 37.688C85.65 62.814 73.09 92.884 73.09 127.908v54.82h-9.134c-7.61 0-14.084 2.663-19.414 7.993-5.33 5.327-7.994 11.8-7.994 19.418V374.59c0 7.61 2.665 14.086 7.994 19.417 5.33 5.325 11.803 7.99 19.414 7.99H338.04c7.617 0 14.085-2.662 19.417-7.99 5.325-5.33 7.994-11.806 7.994-19.417V210.135c.005-7.612-2.668-14.084-8-19.414zm-83.363-7.992H127.91v-54.82c0-20.176 7.138-37.403 21.413-51.676 14.277-14.275 31.5-21.41 51.678-21.41 20.18 0 37.4 7.134 51.678 21.41 14.27 14.272 21.41 31.5 21.41 51.675v54.82z" fill="#686868" stroke="#000" stroke-width="10"/>
</svg>
